<svg width="16" height="16" viewBox="0 0 16 16" fill="none" xmlns="http://www.w3.org/2000/svg">
<g clip-path="url(#clip0)">
<path fill-rule="evenodd" clip-rule="evenodd" d="M5.25603 2.8208V12.2208C4.74403 12.1136 4.14883 12.1544 3.55843 12.3728C2.22963 12.8664 1.76083 14.0672 2.11283 15.0544C2.46483 16.0424 3.50483 16.4416 4.83283 15.948C5.96083 15.5296 6.70003 14.6 6.68163 13.7248C6.68163 13.7248 6.68163 8.74 6.68163 5.96L12.3056 4.6712V10.636C11.7928 10.5296 11.1976 10.5696 10.6072 10.7888C9.27923 11.2824 8.81043 12.4832 9.16243 13.4704C9.51363 14.4584 10.5536 14.8576 11.8816 14.3648C13.0104 13.9456 13.7488 13.016 13.7312 12.1416V1L5.25603 2.8208Z" fill="white"/>
</g>
<defs>
<clipPath id="clip0">
<rect width="16" height="16" fill="white"/>
</clipPath>
</defs>
</svg>
