<svg width="16" height="16" fill="none" xmlns="http://www.w3.org/2000/svg"><g clip-path="url(#clip0)"><path fill-rule="evenodd" clip-rule="evenodd" d="M5.256 2.82v9.4c-.512-.106-1.107-.066-1.698.153-1.328.493-1.797 1.694-1.445 2.681.352.988 1.392 1.388 2.72.894C5.96 15.53 6.7 14.6 6.682 13.725V5.96l5.624-1.289v5.965a3.108 3.108 0 00-1.699.153c-1.328.493-1.797 1.694-1.445 2.681.352.988 1.392 1.388 2.72.895 1.128-.42 1.867-1.349 1.85-2.223V1L5.255 2.82z" fill="#fff"/></g><defs><clipPath id="clip0"><path fill="#fff" d="M0 0h16v16H0z"/></clipPath></defs></svg>